<svg width="12" height="12" viewBox="0 0 12 12" fill="none" xmlns="http://www.w3.org/2000/svg">
<g clip-path="url(#clip0_12:147)">
<path d="M11.6881 10.203L6.98266 5.4975L1.48516 0H1.05553L0.967803 0.222914C0.736264 0.811289 0.637334 1.41307 0.681748 1.96312C0.732373 2.59013 0.970568 3.13296 1.37062 3.53302L5.66226 7.82466L6.22833 7.25859L10.1959 11.6951C10.5906 12.0898 11.27 12.1133 11.6881 11.6951C12.0995 11.2837 12.0995 10.6144 11.6881 10.203Z" fill="white"/>
<path d="M3.67339 6.83069L0.312193 10.1919C-0.0991817 10.6033 -0.0991817 11.2727 0.312193 11.684C0.70299 12.0748 1.37905 12.1093 1.80434 11.684L5.16556 8.32281L3.67339 6.83069Z" fill="white"/>
<path d="M11.4903 1.99799L9.58364 3.90463L9.08623 3.40724L10.9929 1.50057L10.4955 1.00318L8.58886 2.90982L8.09147 2.41243L9.99814 0.50579L9.50077 0.00842285L7.01382 2.49538C6.70957 2.79962 6.52791 3.20359 6.50222 3.63292C6.49573 3.74169 6.47107 3.84868 6.43018 3.95045L8.0457 5.56597C8.14746 5.52502 8.25448 5.50039 8.36323 5.4939C8.79256 5.46828 9.19653 5.28657 9.50077 4.98233L11.9877 2.4954L11.4903 1.99799Z" fill="white"/>
</g>
<defs>
<clipPath id="clip0_12:147">
<rect width="12" height="12" fill="white"/>
</clipPath>
</defs>
</svg>
