<svg width="14" height="12" viewBox="0 0 14 12" fill="none" xmlns="http://www.w3.org/2000/svg">
<path d="M7.03278 11.2681C7.93607 11.2681 8.66833 10.5358 8.66833 9.63251C8.66833 8.72921 7.93607 7.99695 7.03278 7.99695C6.12948 7.99695 5.39722 8.72921 5.39722 9.63251C5.39722 10.5358 6.12948 11.2681 7.03278 11.2681Z" fill="white"/>
<path d="M10.9419 5.69186C10.9176 5.66692 10.892 5.64467 10.867 5.62175L10.7936 5.5523C10.7814 5.5395 10.7679 5.53006 10.7524 5.51792C8.63753 3.59651 5.4008 3.67269 3.38231 5.69119L3.14567 5.9285L2.81802 6.25615C2.4189 6.65526 2.42093 7.30584 2.82071 7.70563C3.22118 8.10677 3.87176 8.10744 4.2702 7.70833L4.83516 7.14337C6.1188 5.86041 8.20673 5.86041 9.48969 7.14269L9.89757 7.53776C10.2926 7.93283 10.9372 7.93216 11.3342 7.53439C11.5264 7.34292 11.6322 7.08741 11.6329 6.81572C11.6336 6.54537 11.5291 6.28986 11.3369 6.09906L10.9419 5.69186Z" fill="white"/>
<path d="M13.7282 3.67003L13.3884 3.33025C13.387 3.3289 13.3863 3.32688 13.3836 3.3262L13.1153 3.05653C13.0681 3.01001 13.0169 2.96956 12.963 2.9345C9.51588 -0.091885 4.27279 0.0011517 0.935605 3.21159C0.919425 3.22642 0.901222 3.23654 0.885042 3.25272L0.271539 3.86689C-0.0925177 4.23028 -0.0904951 4.82153 0.275584 5.18761C0.640989 5.55302 1.23224 5.55571 1.5963 5.19098L2.2098 4.57815C2.21385 4.57276 2.21722 4.56804 2.22126 4.56467C4.92 1.95762 9.20104 1.94144 11.9214 4.51141L12.4041 4.99479C12.7674 5.35818 13.36 5.35683 13.7255 4.99142C14.0902 4.62534 14.0915 4.03342 13.7282 3.67003Z" fill="white"/>
</svg>
